<?xml version="1.0" encoding="UTF-8" standalone="no"?>
<svg
   xmlns="http://www.w3.org/2000/svg"
   viewBox="0 0 252.52 168.2"
   height="168.2"
   width="252.52"
   xml:space="preserve"
   id="svg2"
   version="1.1"><metadata
     id="metadata8"></metadata><defs
     id="defs6" /><g
     transform="matrix(1.3333333,0,0,-1.3333333,0,168.2)"
     id="g10"><g
       transform="scale(0.1)"
       id="g12"><path
         id="path14"
         style="fill:#231f20;fill-opacity:1;fill-rule:nonzero;stroke:none"
         d="m 1579.72,1256.02 -2.78,5.51 H 316.941 L 0,630.758 316.941,0 H 1576.94 l 316.96,630.758 -314.18,625.262" /><path
         id="path16"
         style="fill:#ffffff;fill-opacity:1;fill-rule:nonzero;stroke:none"
         d="M 860.992,979.25 C 886.781,919.32 922.254,862.605 965.141,813.133 V 634.949 H 860.992 Z M 716.836,634.949 v 218 c 42.391,45.469 78.211,93.203 104.156,139.918 V 634.949 Z m -40,177.629 V 634.949 H 409.34 c 94.941,38.703 189.308,103.364 267.496,177.629 z M 1233,634.949 h -227.86 v 136.254 c 0.79,-0.754 1.56,-1.543 2.36,-2.289 63.96,-60.219 140.08,-105.094 225.5,-133.965 z m 455.2,-5.039 -93.53,107.469 c -7.26,8.332 -19.88,9.191 -28.22,1.953 -8.33,-7.254 -9.2,-19.883 -1.96,-28.223 l 64.7,-74.336 h -153.73 c -178.66,0 -326.89,54.258 -440.55,161.27 -87.207,82.09 -150.012,195.02 -172.316,309.817 -1.828,9.39 -10.059,16.18 -19.633,16.18 -0.359,0 -0.699,-0.07 -1.051,-0.09 -0.312,0.01 -0.605,0.09 -0.918,0.09 -11.047,0 -20,-8.95 -20,-20 v -6.06 C 775.383,908 466.289,636.773 235.387,636.773 c -2.953,0 -5.731,-0.679 -8.254,-1.824 h -4.942 c -11.043,0 -20,-8.957 -20,-20 0,-11.047 8.957,-20 20,-20 H 820.992 V 167.988 c 0,-11.039 8.953,-20 20,-20 11.043,0 20,8.961 20,20 v 426.961 h 766.618 l -63.12,-72.531 c -7.24,-8.328 -6.37,-20.957 1.97,-28.211 3.77,-3.293 8.45,-4.914 13.11,-4.914 5.59,0 11.14,2.324 15.1,6.875 l 93.53,107.48 c 6.56,7.52 6.56,18.731 0,26.262" /></g></g></svg>
